<svg width="1440" height="857" viewBox="0 0 1440 857" fill="none" xmlns="http://www.w3.org/2000/svg">
<path d="M236.563 105.25C147.813 105.25 153.425 143.625 153.425 143.625V183.5H237.825V196H119.813C119.813 196 63 189 63 279.062C63 369.125 113.163 365.462 113.163 365.462H142.125V323.45C142.125 323.45 140.5 273.287 190.875 273.287H275.4C275.4 273.287 322.55 274.037 322.55 227.637V151.5C322.55 151.5 329.7 105.1 237.025 105.1L236.563 105.25ZM189.912 131.963C192.913 131.887 195.869 132.703 198.405 134.307C200.942 135.911 202.946 138.231 204.164 140.974C205.383 143.718 205.76 146.76 205.248 149.718C204.737 152.675 203.36 155.415 201.292 157.59C199.223 159.765 196.557 161.278 193.628 161.937C190.7 162.596 187.642 162.372 184.841 161.294C182.041 160.215 179.622 158.33 177.893 155.877C176.163 153.424 175.2 150.513 175.125 147.513V147.263C175.125 145.27 175.518 143.296 176.28 141.455C177.043 139.614 178.161 137.941 179.57 136.532C180.979 135.123 182.652 134.005 184.493 133.243C186.334 132.48 188.307 132.088 190.3 132.088L189.912 131.963Z" fill="url(#paint0_linear_5_2)"/>
<path d="M239.062 452.875C327.812 452.875 322.2 414.375 322.2 414.375V374.625H237.812V362.125H356.187C356.187 362.125 413 368.475 413 278.938C413 189.4 362.837 192.538 362.837 192.538H333.5V234C333.5 234 335.125 284.163 284.75 284.163H200.187C200.187 284.163 153 283.45 153 329.85V406.5C153 406.5 145.85 452.9 238.525 452.9H239.025L239.062 452.875ZM285.712 426.037C282.712 426.113 279.756 425.297 277.22 423.693C274.683 422.089 272.679 419.769 271.46 417.026C270.242 414.282 269.865 411.24 270.377 408.282C270.888 405.325 272.265 402.585 274.333 400.41C276.402 398.235 279.068 396.722 281.997 396.063C284.925 395.404 287.983 395.628 290.784 396.706C293.584 397.785 296.003 399.67 297.732 402.123C299.462 404.576 300.425 407.487 300.5 410.487V410.862C300.5 414.887 298.901 418.747 296.055 421.593C293.209 424.439 289.35 426.037 285.325 426.037H285.7H285.712Z" fill="url(#paint1_linear_5_2)"/>
<path d="M698 399H348V749H698V399Z" fill="#F5DE19"/>
<path d="M583.113 672.438C586.095 678.495 590.728 683.586 596.478 687.125C602.228 690.664 608.861 692.505 615.613 692.438C629.238 692.438 637.95 685.625 637.95 676.187C637.95 664.937 629 660.913 614 654.35L605.775 650.825C582.025 640.713 566.275 628.05 566.275 601.275C566.275 576.613 585.025 557.825 614.438 557.825C623.959 557.137 633.472 559.268 641.79 563.952C650.108 568.636 656.863 575.665 661.213 584.163L635.5 600.6C633.825 596.387 630.909 592.782 627.139 590.263C623.368 587.745 618.921 586.433 614.388 586.5C612.41 586.302 610.412 586.518 608.522 587.135C606.632 587.751 604.892 588.755 603.411 590.081C601.931 591.408 600.743 593.028 599.923 594.839C599.103 596.65 598.67 598.612 598.65 600.6C598.65 610.463 604.763 614.463 618.875 620.6L627.1 624.125C655.05 636.113 670.85 648.325 670.85 675.788C670.85 705.4 647.588 721.625 616.35 721.625C604.179 722.401 592.043 719.637 581.408 713.668C570.772 707.7 562.091 698.781 556.413 687.987L583.113 672.438ZM466.925 675.288C472.088 684.45 476.788 692.2 488.088 692.2C498.888 692.2 505.713 687.975 505.713 671.537V559.7H538.6V671.975C538.6 706.025 518.6 721.525 489.488 721.525C479.197 722.088 468.977 719.523 460.171 714.169C451.365 708.814 444.386 700.92 440.15 691.525L466.925 675.288Z" fill="black"/>
<path d="M1379.18 495.667C1379.18 488.958 1377.74 483.031 1374.84 477.943C1371.99 472.94 1367.72 468.747 1362 465.432C1314.74 438.183 1267.44 411.018 1220.2 383.742C1207.46 376.389 1195.11 376.657 1182.47 384.115C1163.66 395.208 1069.49 449.162 1041.42 465.417C1029.87 472.107 1024.24 482.346 1024.24 495.654C1024.22 550.453 1024.24 605.25 1024.22 660.05C1024.22 666.611 1025.6 672.424 1028.37 677.435C1031.22 682.589 1035.55 686.897 1041.41 690.287C1069.47 706.542 1163.66 760.492 1182.46 771.588C1195.11 779.05 1207.46 779.317 1220.2 771.961C1267.44 744.683 1314.75 717.519 1362.01 690.271C1367.87 686.882 1372.2 682.571 1375.05 677.421C1377.82 672.41 1379.19 666.597 1379.2 660.035C1379.2 660.035 1379.2 550.467 1379.18 495.667" fill="#5C8DBC"/>
<path d="M1202.25 577.318L1028.37 677.435C1031.22 682.589 1035.55 686.897 1041.41 690.288C1069.47 706.542 1163.66 760.492 1182.46 771.587C1195.11 779.05 1207.46 779.317 1220.2 771.961C1267.44 744.683 1314.75 717.519 1362.01 690.271C1367.87 686.882 1372.2 682.571 1375.05 677.421L1202.25 577.318" fill="#1A4674"/>
<path d="M1150.75 606.974C1160.87 624.637 1179.89 636.551 1201.71 636.551C1223.66 636.551 1242.79 624.486 1252.86 606.633L1202.25 577.318L1150.75 606.974" fill="#1A4674"/>
<path d="M1379.18 495.667C1379.18 488.958 1377.74 483.031 1374.84 477.943L1202.25 577.318L1375.05 677.421C1377.82 672.41 1379.19 666.597 1379.2 660.035C1379.2 660.035 1379.2 550.467 1379.18 495.667" fill="#1B598E"/>
<path d="M1369.68 584.474H1356.17V597.979H1342.67V584.474H1329.17V570.972H1342.67V557.469H1356.17V570.972H1369.68V584.474ZM1320.41 584.474H1306.91V597.979H1293.4V584.474H1279.9V570.972H1293.4V557.469H1306.91V570.972H1320.41V584.474Z" fill="white"/>
<path d="M1252.86 606.633C1242.79 624.486 1223.66 636.551 1201.71 636.551C1179.89 636.551 1160.87 624.637 1150.75 606.974C1145.67 598.11 1143 588.069 1143.01 577.851C1143.01 545.433 1169.29 519.153 1201.71 519.153C1223.39 519.153 1242.31 530.918 1252.48 548.401L1303.78 518.857C1283.39 483.654 1245.32 459.971 1201.71 459.971C1136.6 459.971 1083.83 512.749 1083.83 577.851C1083.83 599.21 1089.51 619.239 1099.44 636.515C1119.78 671.904 1157.96 695.733 1201.71 695.733C1245.54 695.733 1283.78 671.808 1304.09 636.315L1252.86 606.633Z" fill="white"/>
<g clip-path="url(#clip0_5_2)">
<path d="M855.02 153.117C836.537 166.116 815.589 180.85 804.365 205.225C784.869 247.753 844.257 294.141 846.795 296.095C847.385 296.549 848.091 296.776 848.795 296.776C849.543 296.776 850.291 296.52 850.899 296.011C852.078 295.025 852.412 293.35 851.705 291.986C851.49 291.572 830.173 250.165 830.965 220.461C831.245 210.114 845.724 198.378 861.052 185.952C875.091 174.571 891.006 161.671 900.317 146.581C920.757 113.366 898.038 80.7046 897.806 80.378C896.904 79.1109 895.238 78.6523 893.814 79.2765C892.392 79.9046 891.603 81.4429 891.928 82.964C891.974 83.1804 896.392 104.779 884.099 127.031C879.034 136.227 867.906 144.053 855.02 153.117Z" fill="#DB380E"/>
<path d="M932.889 167.764C934.193 166.782 934.576 164.99 933.788 163.56C932.998 162.131 931.279 161.5 929.753 162.08C926.613 163.274 852.865 191.701 852.865 226.049C852.865 249.726 862.979 262.234 870.364 271.369C873.261 274.952 875.762 278.045 876.586 280.687C878.906 288.298 873.409 302.056 871.098 306.716C870.431 308.055 870.758 309.678 871.892 310.656C872.504 311.185 873.269 311.454 874.034 311.454C874.686 311.454 875.341 311.26 875.906 310.867C877.174 309.985 906.896 288.971 901.566 263.653C899.58 254.03 894.851 246.998 890.678 240.794C884.214 231.18 879.545 224.236 886.628 211.411C894.927 196.452 932.509 168.048 932.889 167.764Z" fill="#DB380E"/>
<path d="M740.921 311.998C739.657 315.783 740.253 319.538 742.645 322.86C750.639 333.959 778.958 340.07 822.386 340.07C822.388 340.07 822.39 340.07 822.391 340.07C828.276 340.07 834.488 339.954 840.851 339.726C910.285 337.241 936.039 315.61 937.101 314.69C938.259 313.688 938.568 312.019 937.849 310.669C937.128 309.32 935.576 308.642 934.092 309.05C909.638 315.727 863.977 318.097 832.305 318.097C796.865 318.097 778.816 315.544 774.397 313.659C776.665 310.545 790.649 304.986 807.978 301.577C809.634 301.252 810.772 299.723 810.608 298.043C810.444 296.363 809.033 295.082 807.345 295.082C797.187 295.082 746.246 295.898 740.921 311.998Z" fill="#73A1FB"/>
<path d="M973.261 289.718C958.94 289.718 945.359 296.896 944.787 297.2C943.463 297.909 942.791 299.428 943.154 300.888C943.519 302.345 944.829 303.369 946.332 303.37C946.636 303.37 976.88 303.618 979.619 320.899C982.046 335.806 951.003 359.961 938.836 368.011C937.522 368.881 937.012 370.561 937.622 372.014C938.142 373.25 939.346 374.024 940.644 374.024C940.871 374.024 941.1 374 941.328 373.952C944.216 373.334 1011.96 358.406 1004.8 318.964C1000.43 294.792 985.234 289.718 973.261 289.718Z" fill="#73A1FB"/>
<path d="M926.803 363.185C927.039 361.921 926.514 360.636 925.462 359.898L909.219 348.521C908.427 347.966 907.426 347.792 906.496 348.038C906.327 348.081 889.341 352.546 864.68 355.285C854.892 356.382 843.93 356.962 832.975 356.962C808.32 356.962 792.2 354.065 789.852 351.94C789.541 351.343 789.64 351.072 789.695 350.921C790.122 349.735 792.408 348.326 793.881 347.768C795.508 347.166 796.386 345.399 795.88 343.739C795.375 342.078 793.663 341.1 791.974 341.506C775.68 345.438 767.713 350.936 768.293 357.848C769.322 370.103 797.707 376.393 821.703 378.055C825.154 378.291 828.886 378.411 832.793 378.411C832.795 378.411 832.797 378.411 832.799 378.411C872.701 378.411 923.854 365.891 924.365 365.764C925.614 365.459 926.567 364.45 926.803 363.185Z" fill="#73A1FB"/>
<path d="M804.346 389.485C805.576 388.685 806.122 387.164 805.685 385.763C805.25 384.362 803.94 383.442 802.468 383.461C800.284 383.519 781.101 384.385 779.758 396.598C779.352 400.248 780.397 403.583 782.867 406.509C789.754 414.672 808.347 419.523 839.696 421.34C843.405 421.563 847.172 421.675 850.895 421.675C890.75 421.675 917.592 409.196 918.717 408.665C919.807 408.149 920.525 407.078 920.589 405.875C920.653 404.672 920.053 403.53 919.025 402.901L898.497 390.37C897.785 389.936 896.932 389.792 896.12 389.958C895.99 389.986 882.956 392.689 863.287 395.359C859.565 395.865 854.904 396.122 849.435 396.122C829.787 396.122 807.932 392.912 803.74 390.81C803.68 390.418 803.757 389.919 804.346 389.485Z" fill="#73A1FB"/>
<path d="M832.319 459.353C923.612 459.276 972.61 443.04 982.049 432.824C985.39 429.21 985.751 425.788 985.468 423.553C984.766 418.053 979.756 414.686 979.188 414.32C977.818 413.439 975.979 413.669 974.91 414.902C973.843 416.135 973.818 417.936 974.889 419.169C975.465 419.909 975.797 421.149 974.114 422.834C970.34 426.358 932.282 437.056 868.913 440.27C860.233 440.721 851.128 440.951 841.854 440.952C785.117 440.952 743.594 433.18 738.143 428.652C740.244 425.633 754.932 420.811 770.551 418.083C772.311 417.776 773.5 416.117 773.228 414.351C772.955 412.586 771.328 411.372 769.549 411.602C769.108 411.662 767.613 411.751 765.882 411.858C740.11 413.431 710.328 416.938 708.774 430.217C708.302 434.263 709.504 437.937 712.349 441.133C719.309 448.954 739.314 459.351 832.316 459.351C832.318 459.353 832.318 459.353 832.319 459.353Z" fill="#73A1FB"/>
<path d="M999.98 435.703C998.69 435.106 997.165 435.408 996.202 436.447C996.069 436.591 982.343 450.944 941.074 459.372C925.275 462.537 895.618 464.143 852.928 464.143C810.158 464.143 769.461 462.46 769.055 462.443C767.355 462.36 765.901 463.596 765.67 465.269C765.438 466.941 766.516 468.518 768.158 468.909C768.581 469.009 811.232 479.001 869.548 479.001C897.517 479.001 924.735 476.73 950.445 472.247C998.383 463.843 1001.74 440.073 1001.86 439.065C1002.03 437.656 1001.27 436.3 999.98 435.703Z" fill="#73A1FB"/>
</g>
<defs>
<linearGradient id="paint0_linear_5_2" x1="97.5895" y1="139.286" x2="263.673" y2="304.993" gradientUnits="userSpaceOnUse">
<stop stop-color="#387EB8"/>
<stop offset="1" stop-color="#366994"/>
</linearGradient>
<linearGradient id="paint1_linear_5_2" x1="195.844" y1="247.232" x2="385.596" y2="412.889" gradientUnits="userSpaceOnUse">
<stop stop-color="#FFE052"/>
<stop offset="1" stop-color="#FFC331"/>
</linearGradient>
<clipPath id="clip0_5_2">
<rect width="400" height="400" fill="white" transform="translate(657 79)"/>
</clipPath>
</defs>
</svg>
