<svg width="1440" height="857" viewBox="0 0 1440 857" fill="none" xmlns="http://www.w3.org/2000/svg">
<path d="M1122.43 573.801C1137.8 573.801 1150.31 561.29 1150.31 545.912C1150.31 530.535 1137.8 518.024 1122.43 518.024C1107.05 518.024 1094.54 530.535 1094.54 545.912C1094.54 561.29 1107.05 573.801 1122.43 573.801ZM1122.43 533.96C1129.02 533.96 1134.38 539.322 1134.38 545.912C1134.38 552.503 1129.02 557.865 1122.43 557.865C1115.84 557.865 1110.47 552.503 1110.47 545.912C1110.47 539.322 1115.84 533.96 1122.43 533.96Z" fill="black"/>
<path d="M1052.31 566.629C1063.73 566.629 1073.02 557.335 1073.02 545.912C1073.02 534.489 1063.73 525.195 1052.31 525.195C1040.88 525.195 1031.59 534.489 1031.59 545.912C1031.59 557.335 1040.88 566.629 1052.31 566.629ZM1052.31 541.131C1054.94 541.131 1057.09 543.276 1057.09 545.912C1057.09 548.549 1054.94 550.693 1052.31 550.693C1049.67 550.693 1047.53 548.549 1047.53 545.912C1047.53 543.276 1049.67 541.131 1052.31 541.131Z" fill="black"/>
<path d="M826.809 553.88H999.717C1004.12 553.88 1007.69 550.313 1007.69 545.912C1007.69 541.512 1004.12 537.944 999.717 537.944H826.809C822.408 537.944 818.841 541.512 818.841 545.912C818.841 550.313 822.408 553.88 826.809 553.88Z" fill="black"/>
<path d="M1171.03 356.271H1141.55V353.361C1141.55 348.96 1137.98 345.393 1133.58 345.393C1129.18 345.393 1125.61 348.96 1125.61 353.361V356.271H830.793V353.361C830.793 348.96 827.225 345.393 822.825 345.393C818.424 345.393 814.857 348.96 814.857 353.361V356.271H786.968C782.567 356.271 779 359.838 779 364.239V461.45C779 465.851 782.567 469.418 786.968 469.418H814.857V489.339H786.968C782.567 489.339 779 492.906 779 497.307V594.518C779 598.919 782.567 602.486 786.968 602.486H1171.03C1175.43 602.486 1179 598.919 1179 594.518V497.307C1179 492.906 1175.43 489.339 1171.03 489.339H1141.55V469.418H1171.03C1175.43 469.418 1179 465.851 1179 461.45V364.239C1179 359.838 1175.43 356.271 1171.03 356.271ZM1163.06 505.275V586.55H794.936V505.275H1163.06ZM830.793 489.339V469.418H1125.61V489.339H830.793ZM1163.06 453.482H794.936V372.207H1163.06V453.482Z" fill="black"/>
<path d="M1122.43 440.733C1137.8 440.733 1150.31 428.222 1150.31 412.845C1150.31 397.467 1137.8 384.956 1122.43 384.956C1107.05 384.956 1094.54 397.467 1094.54 412.845C1094.54 428.222 1107.05 440.733 1122.43 440.733ZM1122.43 400.892C1129.02 400.892 1134.38 406.254 1134.38 412.845C1134.38 419.435 1129.02 424.797 1122.43 424.797C1115.84 424.797 1110.47 419.435 1110.47 412.845C1110.47 406.254 1115.84 400.892 1122.43 400.892Z" fill="black"/>
<path d="M1052.31 433.562C1063.73 433.562 1073.02 424.268 1073.02 412.845C1073.02 401.422 1063.73 392.127 1052.31 392.127C1040.88 392.127 1031.59 401.422 1031.59 412.845C1031.59 424.268 1040.88 433.562 1052.31 433.562ZM1052.31 408.064C1054.94 408.064 1057.09 410.208 1057.09 412.845C1057.09 415.481 1054.94 417.625 1052.31 417.625C1049.67 417.625 1047.53 415.481 1047.53 412.845C1047.53 410.208 1049.67 408.064 1052.31 408.064Z" fill="black"/>
<path d="M826.809 420.813H999.717C1004.12 420.813 1007.69 417.245 1007.69 412.845C1007.69 408.444 1004.12 404.876 999.717 404.876H826.809C822.408 404.876 818.841 408.444 818.841 412.845C818.841 417.245 822.408 420.813 826.809 420.813Z" fill="black"/>
<path d="M1171.03 224H786.968C782.567 224 779 227.567 779 231.968V329.179C779 333.58 782.567 337.147 786.968 337.147H1171.03C1175.43 337.147 1179 333.58 1179 329.179V231.968C1179 227.567 1175.43 224 1171.03 224ZM1163.06 321.211H794.936V239.936H1163.06V321.211Z" fill="black"/>
<path d="M1122.43 308.462C1137.8 308.462 1150.31 295.951 1150.31 280.574C1150.31 265.196 1137.8 252.685 1122.43 252.685C1107.05 252.685 1094.54 265.196 1094.54 280.574C1094.54 295.951 1107.05 308.462 1122.43 308.462ZM1122.43 268.622C1129.02 268.622 1134.38 273.983 1134.38 280.574C1134.38 287.164 1129.02 292.526 1122.43 292.526C1115.84 292.526 1110.47 287.164 1110.47 280.574C1110.47 273.983 1115.84 268.622 1122.43 268.622Z" fill="black"/>
<path d="M1052.31 301.291C1063.73 301.291 1073.02 291.997 1073.02 280.574C1073.02 269.151 1063.73 259.857 1052.31 259.857C1040.88 259.857 1031.59 269.151 1031.59 280.574C1031.59 291.997 1040.88 301.291 1052.31 301.291ZM1052.31 275.793C1054.94 275.793 1057.09 277.937 1057.09 280.574C1057.09 283.21 1054.94 285.355 1052.31 285.355C1049.67 285.355 1047.53 283.21 1047.53 280.574C1047.53 277.937 1049.67 275.793 1052.31 275.793Z" fill="black"/>
<path d="M826.809 288.542H946.331C950.731 288.542 954.299 284.975 954.299 280.574C954.299 276.173 950.731 272.606 946.331 272.606H826.809C822.408 272.606 818.841 276.173 818.841 280.574C818.841 284.975 822.408 288.542 826.809 288.542Z" fill="black"/>
<path d="M975.813 288.542H999.717C1004.12 288.542 1007.69 284.975 1007.69 280.574C1007.69 276.173 1004.12 272.606 999.717 272.606H975.813C971.412 272.606 967.845 276.173 967.845 280.574C967.845 284.975 971.412 288.542 975.813 288.542Z" fill="black"/>
<path d="M1190 718C1245.23 718 1290 673.228 1290 618C1290 562.772 1245.23 518 1190 518C1134.77 518 1090 562.772 1090 618C1090 673.228 1134.77 718 1190 718Z" fill="#5865F2"/>
<path d="M1224.65 586.164C1218.17 583.188 1211.33 581.066 1204.3 579.852C1204.23 579.839 1204.17 579.848 1204.11 579.875C1204.05 579.903 1204 579.949 1203.97 580.006C1203.04 581.698 1202.19 583.436 1201.43 585.213C1193.85 584.062 1186.15 584.062 1178.57 585.213C1177.81 583.431 1176.95 581.693 1176 580.006C1175.96 579.95 1175.91 579.905 1175.86 579.878C1175.8 579.85 1175.73 579.841 1175.67 579.852C1168.64 581.064 1161.8 583.186 1155.32 586.164C1155.26 586.188 1155.22 586.228 1155.19 586.279C1142.22 605.648 1138.67 624.541 1140.41 643.195C1140.42 643.241 1140.43 643.286 1140.46 643.326C1140.48 643.366 1140.51 643.401 1140.54 643.43C1148.09 649.021 1156.54 653.29 1165.52 656.053C1165.58 656.072 1165.65 656.071 1165.71 656.05C1165.77 656.03 1165.83 655.99 1165.87 655.937C1167.8 653.313 1169.5 650.534 1170.97 647.629C1170.99 647.589 1171.01 647.545 1171.01 647.501C1171.01 647.456 1171 647.412 1170.99 647.37C1170.97 647.329 1170.94 647.291 1170.91 647.26C1170.88 647.229 1170.84 647.205 1170.8 647.189C1168.11 646.16 1165.5 644.92 1163 643.479C1162.95 643.452 1162.92 643.414 1162.89 643.37C1162.86 643.325 1162.85 643.274 1162.84 643.221C1162.84 643.169 1162.85 643.116 1162.87 643.068C1162.89 643.021 1162.93 642.979 1162.97 642.947C1163.49 642.557 1164.02 642.146 1164.52 641.732C1164.56 641.696 1164.62 641.673 1164.67 641.665C1164.73 641.657 1164.79 641.666 1164.84 641.689C1181.21 649.162 1198.92 649.162 1215.1 641.689C1215.15 641.664 1215.21 641.654 1215.27 641.661C1215.32 641.668 1215.38 641.692 1215.42 641.729C1215.92 642.141 1216.45 642.555 1216.99 642.947C1217.03 642.979 1217.06 643.02 1217.08 643.068C1217.11 643.115 1217.12 643.168 1217.11 643.22C1217.11 643.273 1217.1 643.324 1217.07 643.369C1217.04 643.414 1217 643.451 1216.96 643.479C1214.46 644.933 1211.85 646.175 1209.15 647.189C1209.1 647.205 1209.07 647.23 1209.03 647.262C1209 647.294 1208.98 647.332 1208.96 647.374C1208.95 647.416 1208.94 647.461 1208.94 647.506C1208.94 647.551 1208.96 647.595 1208.98 647.635C1210.47 650.524 1212.18 653.3 1214.08 655.939C1214.12 655.994 1214.17 656.035 1214.24 656.056C1214.3 656.077 1214.37 656.078 1214.43 656.059C1223.42 653.304 1231.88 649.035 1239.43 643.436C1239.47 643.409 1239.5 643.374 1239.52 643.334C1239.54 643.295 1239.56 643.251 1239.56 643.205C1241.65 621.635 1236.07 602.896 1224.78 586.287C1224.75 586.233 1224.71 586.189 1224.65 586.164V586.164ZM1173.42 631.838C1168.49 631.838 1164.43 627.314 1164.43 621.76C1164.43 616.205 1168.41 611.682 1173.42 611.682C1178.46 611.682 1182.48 616.244 1182.4 621.76C1182.4 627.314 1178.42 631.838 1173.42 631.838ZM1206.64 631.838C1201.72 631.838 1197.66 627.314 1197.66 621.76C1197.66 616.205 1201.64 611.682 1206.64 611.682C1211.69 611.682 1215.71 616.244 1215.63 621.76C1215.63 627.314 1211.69 631.838 1206.64 631.838Z" fill="white"/>
<path d="M406.002 230.32C401.277 230.32 397.449 226.491 397.449 221.767V163.369C397.449 158.646 401.277 154.816 406.002 154.816C410.727 154.816 414.555 158.645 414.555 163.369V221.767C414.555 226.49 410.727 230.32 406.002 230.32Z" fill="#2BA5F7"/>
<path d="M470.176 348.645H341.825V383.427H470.176V348.645Z" fill="#E09B2D"/>
<path d="M514.126 221.047V357.768H470.175H341.825H297.874V221.047C297.874 205.07 310.829 192.115 326.806 192.115H406.006H485.195C501.182 192.116 514.126 205.071 514.126 221.047Z" fill="#F95428"/>
<path d="M346.192 192.116H326.805C310.828 192.116 297.873 205.071 297.873 221.048V357.769H317.26V221.047C317.261 205.071 330.216 192.116 346.192 192.116Z" fill="#E54728"/>
<path d="M355.019 503.784H321.606V625.087H355.019V503.784Z" fill="#F7B239"/>
<path d="M490.394 503.784H456.992V625.087H490.394V503.784Z" fill="#F7B239"/>
<path d="M456.992 504.924V547.027H490.394V504.924H456.992ZM321.606 547.027H355.019V504.924H321.606V547.027Z" fill="#E09B2D"/>
<path d="M561.098 404.091H498.799V439.261H561.098V404.091Z" fill="#F7B239"/>
<path d="M313.634 404.091H250.468V439.261H313.634V404.091Z" fill="#F7B239"/>
<path d="M353.251 248.576C369.764 248.576 383.141 261.964 383.141 278.466C383.141 294.979 369.764 308.356 353.251 308.356C336.75 308.356 323.373 294.979 323.373 278.466C323.373 261.964 336.75 248.576 353.251 248.576Z" fill="#F7B239"/>
<path d="M458.749 248.576C475.25 248.576 488.639 261.964 488.639 278.466C488.639 294.979 475.251 308.356 458.749 308.356C442.236 308.356 428.859 294.979 428.859 278.466C428.859 261.964 442.236 248.576 458.749 248.576Z" fill="#F7B239"/>
<path d="M374.36 611.562V652H302.265V611.562H321.606H355.019H374.36Z" fill="#F95428"/>
<path d="M509.735 611.562V652H437.651V611.562H456.992H490.394H509.735Z" fill="#F95428"/>
<path d="M566.253 409.611V550.027H534.368V439.261V404.091V377.725C551.978 377.725 566.253 392.001 566.253 409.611Z" fill="#F95428"/>
<path d="M277.632 439.261V550.027H245.747V409.611C245.747 392.001 260.022 377.726 277.632 377.726V404.092V439.261Z" fill="#F95428"/>
<path d="M514.126 439.261V517.309H490.395V517.298H456.993V517.309H355.019V517.298H321.606V517.309H297.875V439.261V404.091V377.725H341.826H470.177H514.128V404.091L514.126 439.261Z" fill="#2BA5F7"/>
<path d="M335.917 377.725H297.874V517.297H335.917V377.725Z" fill="#2197D8"/>
<path d="M391.698 278.467C391.698 257.271 374.453 240.026 353.257 240.026C332.059 240.026 314.815 257.271 314.815 278.467C314.815 299.663 332.06 316.908 353.257 316.908C374.453 316.908 391.698 299.663 391.698 278.467ZM331.92 278.467C331.92 266.703 341.492 257.131 353.257 257.131C365.022 257.131 374.593 266.702 374.593 278.467C374.593 290.231 365.022 299.803 353.257 299.803C341.492 299.803 331.92 290.231 331.92 278.467Z" fill="#4D4D4D"/>
<path d="M458.748 316.908C479.944 316.908 497.189 299.663 497.189 278.467C497.189 257.271 479.944 240.026 458.748 240.026C437.55 240.026 420.306 257.271 420.306 278.467C420.306 299.663 437.55 316.908 458.748 316.908ZM458.748 257.13C470.512 257.13 480.083 266.701 480.083 278.466C480.083 290.231 470.512 299.802 458.748 299.802C446.984 299.802 437.411 290.231 437.411 278.466C437.411 266.701 446.983 257.13 458.748 257.13Z" fill="#4D4D4D"/>
<path d="M466.275 419.68C470.999 419.68 474.828 415.851 474.828 411.127C474.828 406.403 470.999 402.574 466.275 402.574C461.551 402.574 457.722 406.403 457.722 411.127C457.722 415.851 461.551 419.68 466.275 419.68Z" fill="#4D4D4D"/>
<path d="M345.725 419.68C350.449 419.68 354.278 415.851 354.278 411.127C354.278 406.403 350.449 402.574 345.725 402.574C341.001 402.574 337.172 406.403 337.172 411.127C337.172 415.851 341.001 419.68 345.725 419.68Z" fill="#4D4D4D"/>
<path d="M406.006 169.632C414.189 169.632 420.822 162.999 420.822 154.816C420.822 146.633 414.189 140 406.006 140C397.823 140 391.19 146.633 391.19 154.816C391.19 162.999 397.823 169.632 406.006 169.632Z" fill="#F7B239"/>
<path d="M453.469 470.906H358.532C358.532 459.833 362.33 449.638 368.681 441.564C377.382 430.525 390.862 423.432 406.006 423.432C432.223 423.432 453.469 444.689 453.469 470.906Z" fill="#E09B2D"/>
<path d="M444.813 470.906H358.531C358.531 459.833 362.329 449.638 368.68 441.564C376.754 435.212 386.938 431.415 398.022 431.415C421.515 431.415 441.027 448.486 444.813 470.906Z" fill="#F7B239"/>
</svg>
