<svg width="1000" height="1000" viewBox="0 0 1000 1000" fill="none" xmlns="http://www.w3.org/2000/svg">
<g clip-path="url(#clip0_6_2)">
<rect width="1000" height="1000" fill="white"/>
<path d="M71.2579 -187.318L624.5 1292.06L-196.626 1599.13L-749.868 119.759L71.2579 -187.318Z" fill="#A8D6CC"/>
<path d="M250.746 706.229L323.012 482.84H369.154L274.184 747H243.91L250.746 706.229ZM190.443 482.84L264.906 707.449L270.033 747H239.76L144.057 482.84H190.443ZM386.977 723.074C386.977 715.424 389.337 708.995 394.057 703.787C398.939 698.416 405.938 695.73 415.053 695.73C424.167 695.73 431.085 698.416 435.805 703.787C440.688 708.995 443.129 715.424 443.129 723.074C443.129 730.561 440.688 736.909 435.805 742.117C431.085 747.326 424.167 749.93 415.053 749.93C405.938 749.93 398.939 747.326 394.057 742.117C389.337 736.909 386.977 730.561 386.977 723.074ZM675.307 391.531L527.113 777.518H488.295L636.732 391.531H675.307Z" fill="black"/>
</g>
<defs>
<clipPath id="clip0_6_2">
<rect width="1000" height="1000" fill="white"/>
</clipPath>
</defs>
</svg>
