<?xml version="1.0" encoding="iso-8859-1"?>
<!-- Generator: Adobe Illustrator 19.0.0, SVG Export Plug-In . SVG Version: 6.00 Build 0)  -->
<svg version="1.1" id="Layer_1" xmlns="http://www.w3.org/2000/svg" xmlns:xlink="http://www.w3.org/1999/xlink" x="0px" y="0px"
	 viewBox="0 0 496 496" style="enable-background:new 0 0 496 496;" xml:space="preserve">
<g>
	<g>
		<g>
			<path d="M472,32h-72V0H100.688L0,100.688V496h400V192h72c13.232,0,24-10.768,24-24V56C496,42.768,485.232,32,472,32z M96,27.312
				V96H27.312L96,27.312z M384,480H16V112h96V16h272v16H184c-13.232,0-24,10.768-24,24v112c0,13.232,10.768,24,24,24h200V480z
				 M480,168c0,4.408-3.592,8-8,8H184c-4.408,0-8-3.592-8-8V56c0-4.408,3.592-8,8-8h288c4.408,0,8,3.592,8,8V168z"/>
			<polygon points="352,104 304,104 304,64 288,64 288,160 304,160 304,120 352,120 352,160 368,160 368,64 352,64 			"/>
			<path d="M32,464h336V208H32V464z M48,224h304v224H48V224z"/>
			<rect x="32" y="128" width="16" height="16"/>
			<rect x="64" y="128" width="16" height="16"/>
			<rect x="32" y="160" width="16" height="16"/>
			<path d="M244,64h-52v48v8v40h16v-40h36c15.44,0,28-12.56,28-28S259.44,64,244,64z M244,104h-36V80h36c6.616,0,12,5.384,12,12
				C256,98.616,250.616,104,244,104z"/>
			<path d="M436,64h-52v48v8v40h16v-40h36c15.44,0,28-12.56,28-28S451.44,64,436,64z M436,104h-36V80h36c6.616,0,12,5.384,12,12
				C448,98.616,442.616,104,436,104z"/>
			<polygon points="137.808,242.936 61.664,336 137.808,429.064 150.192,418.936 82.336,336 150.192,253.064 			"/>
			<polygon points="249.808,253.064 317.664,336 249.808,418.936 262.192,429.064 338.336,336 262.192,242.936 			"/>
			
				<rect x="191.996" y="242.355" transform="matrix(-0.9398 -0.3417 0.3417 -0.9398 273.1435 720.0955)" width="16" height="187.27"/>
		</g>
	</g>
</g>
<g>
</g>
<g>
</g>
<g>
</g>
<g>
</g>
<g>
</g>
<g>
</g>
<g>
</g>
<g>
</g>
<g>
</g>
<g>
</g>
<g>
</g>
<g>
</g>
<g>
</g>
<g>
</g>
<g>
</g>
</svg>
