# WaveFront *.obj file (generated by Autodesk ATF)

mtllib Titlecard.mtl

g Solid1

v 0.000000 0.000000 2.000000
v 0.000000 0.000000 14.000000
v 0.000000 0.050144 1.554958
v 0.000000 0.050144 14.445041
v 0.000000 0.198062 1.132233
v 0.000000 0.198062 14.867767
v 0.000000 0.436337 0.753020
v 0.000000 0.436337 15.246980
v 0.000000 0.753020 0.436337
v 0.000000 0.753020 15.563663
v 0.000000 1.132233 0.198062
v 0.000000 1.132233 15.801938
v 0.000000 1.554958 0.050144
v 0.000000 1.554958 15.949856
v 0.000000 2.000000 0.000000
v 0.000000 2.000000 16.000000
v 0.000000 18.000000 0.000000
v 0.000000 18.000000 16.000000
v 0.000000 18.445042 0.050144
v 0.000000 18.445042 15.949856
v 0.000000 18.867768 0.198062
v 0.000000 18.867768 15.801938
v 0.000000 19.246980 0.436337
v 0.000000 19.246980 15.563663
v 0.000000 19.563663 0.753020
v 0.000000 19.563663 15.246980
v 0.000000 19.801937 1.132233
v 0.000000 19.801937 14.867767
v 0.000000 19.949856 1.554958
v 0.000000 19.949856 14.445041
v 0.000000 20.000000 2.000000
v 0.000000 20.000000 14.000000
v 2.000000 0.000000 2.000000
v 2.000000 0.000000 14.000000
v 2.000000 0.050144 1.554958
v 2.000000 0.050144 14.445041
v 2.000000 0.198062 1.132233
v 2.000000 0.198062 14.867767
v 2.000000 0.436337 0.753020
v 2.000000 0.436337 15.246980
v 2.000000 0.753020 0.436337
v 2.000000 0.753020 15.563663
v 2.000000 1.132233 0.198062
v 2.000000 1.132233 15.801938
v 2.000000 1.554958 0.050144
v 2.000000 1.554958 15.949856
v 2.000000 2.000000 0.000000
v 2.000000 2.000000 16.000000
v 2.000000 18.000000 0.000000
v 2.000000 18.000000 16.000000
v 2.000000 18.445042 0.050144
v 2.000000 18.445042 15.949856
v 2.000000 18.867768 0.198062
v 2.000000 18.867768 15.801938
v 2.000000 19.246980 0.436337
v 2.000000 19.246980 15.563663
v 2.000000 19.563663 0.753020
v 2.000000 19.563663 15.246980
v 2.000000 19.801937 1.132233
v 2.000000 19.801937 14.867767
v 2.000000 19.949856 1.554958
v 2.000000 19.949856 14.445041
v 2.000000 20.000000 2.000000
v 2.000000 20.000000 14.000000
vt 0.000000 0.000000 0.000000
vt 1.600000 0.000000 0.000000
vt 1.600000 0.200000 0.000000
vt 0.000000 0.200000 0.000000
vt -0.000000 0.000000 0.000000
vt -0.000000 0.044880 0.000000
vt -0.000000 0.089760 0.000000
vt -0.000000 0.134640 0.000000
vt -0.000000 0.179520 0.000000
vt -0.000000 0.224399 0.000000
vt -0.000000 0.269279 0.000000
vt -0.000000 0.314159 0.000000
vt -0.200000 0.314159 0.000000
vt -0.200000 0.269279 0.000000
vt -0.200000 0.224399 0.000000
vt -0.200000 0.179520 0.000000
vt -0.200000 0.134640 0.000000
vt -0.200000 0.089760 0.000000
vt -0.200000 0.044880 0.000000
vt -0.200000 0.000000 0.000000
vt 0.000000 0.000000 0.000000
vt 1.200000 0.000000 0.000000
vt 1.200000 0.200000 0.000000
vt 0.000000 0.200000 0.000000
vt -0.000000 0.000000 0.000000
vt -0.000000 0.044880 0.000000
vt -0.000000 0.089760 0.000000
vt -0.000000 0.134640 0.000000
vt -0.000000 0.179520 0.000000
vt -0.000000 0.224399 0.000000
vt -0.000000 0.269279 0.000000
vt -0.000000 0.314159 0.000000
vt -0.200000 0.314159 0.000000
vt -0.200000 0.269279 0.000000
vt -0.200000 0.224399 0.000000
vt -0.200000 0.179520 0.000000
vt -0.200000 0.134640 0.000000
vt -0.200000 0.089760 0.000000
vt -0.200000 0.044880 0.000000
vt -0.200000 0.000000 0.000000
vt 0.000000 0.000000 0.000000
vt 1.600000 0.000000 0.000000
vt 1.600000 0.200000 0.000000
vt 0.000000 0.200000 0.000000
vt -0.000000 0.000000 0.000000
vt -0.000000 0.044880 0.000000
vt -0.000000 0.089760 0.000000
vt -0.000000 0.134640 0.000000
vt -0.000000 0.179520 0.000000
vt -0.000000 0.224399 0.000000
vt -0.000000 0.269279 0.000000
vt -0.000000 0.314159 0.000000
vt -0.200000 0.314159 0.000000
vt -0.200000 0.269279 0.000000
vt -0.200000 0.224399 0.000000
vt -0.200000 0.179520 0.000000
vt -0.200000 0.134640 0.000000
vt -0.200000 0.089760 0.000000
vt -0.200000 0.044880 0.000000
vt -0.200000 0.000000 0.000000
vt 0.000000 0.000000 0.000000
vt 1.200000 0.000000 0.000000
vt 1.200000 0.200000 0.000000
vt 0.000000 0.200000 0.000000
vt -0.000000 0.000000 0.000000
vt -0.000000 0.044880 0.000000
vt -0.000000 0.089760 0.000000
vt -0.000000 0.134640 0.000000
vt -0.000000 0.179520 0.000000
vt -0.000000 0.224399 0.000000
vt -0.000000 0.269279 0.000000
vt -0.000000 0.314159 0.000000
vt -0.200000 0.314159 0.000000
vt -0.200000 0.269279 0.000000
vt -0.200000 0.224399 0.000000
vt -0.200000 0.179520 0.000000
vt -0.200000 0.134640 0.000000
vt -0.200000 0.089760 0.000000
vt -0.200000 0.044880 0.000000
vt -0.200000 0.000000 0.000000
vt -0.800000 -0.800000 0.000000
vt -0.794986 -0.844504 0.000000
vt -0.780194 -0.886777 0.000000
vt -0.756366 -0.924698 0.000000
vt -0.724698 -0.956366 0.000000
vt -0.686777 -0.980194 0.000000
vt -0.644504 -0.994986 0.000000
vt -0.600000 -1.000000 0.000000
vt 0.600000 -1.000000 0.000000
vt 0.644504 -0.994986 0.000000
vt 0.686777 -0.980194 0.000000
vt 0.724698 -0.956366 0.000000
vt 0.756366 -0.924698 0.000000
vt 0.780194 -0.886777 0.000000
vt 0.794986 -0.844504 0.000000
vt 0.800000 -0.800000 0.000000
vt 0.800000 0.800000 0.000000
vt 0.794986 0.844504 0.000000
vt 0.780194 0.886777 0.000000
vt 0.756366 0.924698 0.000000
vt 0.724698 0.956366 0.000000
vt 0.686777 0.980194 0.000000
vt 0.644504 0.994986 0.000000
vt 0.600000 1.000000 0.000000
vt -0.600000 1.000000 0.000000
vt -0.644504 0.994986 0.000000
vt -0.686777 0.980194 0.000000
vt -0.724698 0.956366 0.000000
vt -0.756366 0.924698 0.000000
vt -0.780194 0.886777 0.000000
vt -0.794986 0.844504 0.000000
vt -0.800000 0.800000 0.000000
vt 0.600000 -1.000000 0.000000
vt 0.644504 -0.994986 0.000000
vt 0.686777 -0.980194 0.000000
vt 0.724698 -0.956366 0.000000
vt 0.756366 -0.924698 0.000000
vt 0.780194 -0.886777 0.000000
vt 0.794986 -0.844504 0.000000
vt 0.800000 -0.800000 0.000000
vt 0.800000 0.800000 0.000000
vt 0.794986 0.844504 0.000000
vt 0.780194 0.886777 0.000000
vt 0.756366 0.924698 0.000000
vt 0.724698 0.956366 0.000000
vt 0.686777 0.980194 0.000000
vt 0.644504 0.994986 0.000000
vt 0.600000 1.000000 0.000000
vt -0.600000 1.000000 0.000000
vt -0.644504 0.994986 0.000000
vt -0.686777 0.980194 0.000000
vt -0.724698 0.956366 0.000000
vt -0.756366 0.924698 0.000000
vt -0.780194 0.886777 0.000000
vt -0.794986 0.844504 0.000000
vt -0.800000 0.800000 0.000000
vt -0.800000 -0.800000 0.000000
vt -0.794986 -0.844504 0.000000
vt -0.780194 -0.886777 0.000000
vt -0.756366 -0.924698 0.000000
vt -0.724698 -0.956366 0.000000
vt -0.686777 -0.980194 0.000000
vt -0.644504 -0.994986 0.000000
vt -0.600000 -1.000000 0.000000
vn 0.000000 0.000000 0.100000
vn 0.000000 0.000000 0.100000
vn 0.000000 0.000000 0.100000
vn 0.000000 0.000000 0.100000
vn 0.000000 0.100000 0.000000
vn 0.000000 0.097493 0.022252
vn 0.000000 0.090097 0.043388
vn 0.000000 0.078183 0.062349
vn 0.000000 0.062349 0.078183
vn 0.000000 0.043388 0.090097
vn 0.000000 0.022252 0.097493
vn 0.000000 0.000000 0.100000
vn 0.000000 0.000000 0.100000
vn 0.000000 0.022252 0.097493
vn 0.000000 0.043388 0.090097
vn 0.000000 0.062349 0.078183
vn 0.000000 0.078183 0.062349
vn 0.000000 0.090097 0.043388
vn 0.000000 0.097493 0.022252
vn 0.000000 0.100000 0.000000
vn 0.000000 0.100000 0.000000
vn 0.000000 0.100000 0.000000
vn 0.000000 0.100000 0.000000
vn 0.000000 0.100000 0.000000
vn 0.000000 0.000000 -0.100000
vn 0.000000 0.022252 -0.097493
vn 0.000000 0.043388 -0.090097
vn 0.000000 0.062349 -0.078183
vn 0.000000 0.078183 -0.062349
vn 0.000000 0.090097 -0.043388
vn 0.000000 0.097493 -0.022252
vn 0.000000 0.100000 0.000000
vn 0.000000 0.100000 0.000000
vn 0.000000 0.097493 -0.022252
vn 0.000000 0.090097 -0.043388
vn 0.000000 0.078183 -0.062349
vn 0.000000 0.062349 -0.078183
vn 0.000000 0.043388 -0.090097
vn 0.000000 0.022252 -0.097493
vn 0.000000 0.000000 -0.100000
vn 0.000000 0.000000 -0.100000
vn 0.000000 0.000000 -0.100000
vn 0.000000 0.000000 -0.100000
vn 0.000000 0.000000 -0.100000
vn 0.000000 -0.100000 0.000000
vn 0.000000 -0.097493 -0.022252
vn 0.000000 -0.090097 -0.043388
vn 0.000000 -0.078183 -0.062349
vn 0.000000 -0.062349 -0.078183
vn 0.000000 -0.043388 -0.090097
vn 0.000000 -0.022252 -0.097493
vn 0.000000 0.000000 -0.100000
vn 0.000000 0.000000 -0.100000
vn 0.000000 -0.022252 -0.097493
vn 0.000000 -0.043388 -0.090097
vn 0.000000 -0.062349 -0.078183
vn 0.000000 -0.078183 -0.062349
vn 0.000000 -0.090097 -0.043388
vn 0.000000 -0.097493 -0.022252
vn 0.000000 -0.100000 0.000000
vn 0.000000 -0.100000 0.000000
vn 0.000000 -0.100000 0.000000
vn 0.000000 -0.100000 0.000000
vn 0.000000 -0.100000 0.000000
vn 0.000000 0.000000 0.100000
vn 0.000000 -0.022252 0.097493
vn 0.000000 -0.043388 0.090097
vn 0.000000 -0.062349 0.078183
vn 0.000000 -0.078183 0.062349
vn 0.000000 -0.090097 0.043388
vn 0.000000 -0.097493 0.022252
vn 0.000000 -0.100000 0.000000
vn 0.000000 -0.100000 0.000000
vn 0.000000 -0.097493 0.022252
vn 0.000000 -0.090097 0.043388
vn 0.000000 -0.078183 0.062349
vn 0.000000 -0.062349 0.078183
vn 0.000000 -0.043388 0.090097
vn 0.000000 -0.022252 0.097493
vn 0.000000 0.000000 0.100000
vn 0.100000 0.000000 0.000000
vn 0.100000 0.000000 0.000000
vn 0.100000 0.000000 0.000000
vn 0.100000 0.000000 0.000000
vn 0.100000 0.000000 0.000000
vn 0.100000 0.000000 0.000000
vn 0.100000 0.000000 0.000000
vn 0.100000 0.000000 0.000000
vn 0.100000 0.000000 0.000000
vn 0.100000 0.000000 0.000000
vn 0.100000 0.000000 0.000000
vn 0.100000 0.000000 0.000000
vn 0.100000 0.000000 0.000000
vn 0.100000 0.000000 0.000000
vn 0.100000 0.000000 0.000000
vn 0.100000 0.000000 0.000000
vn 0.100000 0.000000 0.000000
vn 0.100000 0.000000 0.000000
vn 0.100000 0.000000 0.000000
vn 0.100000 0.000000 0.000000
vn 0.100000 0.000000 0.000000
vn 0.100000 0.000000 0.000000
vn 0.100000 0.000000 0.000000
vn 0.100000 0.000000 0.000000
vn 0.100000 0.000000 0.000000
vn 0.100000 0.000000 0.000000
vn 0.100000 0.000000 0.000000
vn 0.100000 0.000000 0.000000
vn 0.100000 0.000000 0.000000
vn 0.100000 0.000000 0.000000
vn 0.100000 0.000000 0.000000
vn 0.100000 0.000000 0.000000
vn -0.100000 0.000000 0.000000
vn -0.100000 0.000000 0.000000
vn -0.100000 0.000000 0.000000
vn -0.100000 0.000000 0.000000
vn -0.100000 0.000000 0.000000
vn -0.100000 0.000000 0.000000
vn -0.100000 0.000000 0.000000
vn -0.100000 0.000000 0.000000
vn -0.100000 0.000000 0.000000
vn -0.100000 0.000000 0.000000
vn -0.100000 0.000000 0.000000
vn -0.100000 0.000000 0.000000
vn -0.100000 0.000000 0.000000
vn -0.100000 0.000000 0.000000
vn -0.100000 0.000000 0.000000
vn -0.100000 0.000000 0.000000
vn -0.100000 0.000000 0.000000
vn -0.100000 0.000000 0.000000
vn -0.100000 0.000000 0.000000
vn -0.100000 0.000000 0.000000
vn -0.100000 0.000000 0.000000
vn -0.100000 0.000000 0.000000
vn -0.100000 0.000000 0.000000
vn -0.100000 0.000000 0.000000
vn -0.100000 0.000000 0.000000
vn -0.100000 0.000000 0.000000
vn -0.100000 0.000000 0.000000
vn -0.100000 0.000000 0.000000
vn -0.100000 0.000000 0.000000
vn -0.100000 0.000000 0.000000
vn -0.100000 0.000000 0.000000
vn -0.100000 0.000000 0.000000
usemtl 191,191,191
f 18/1/1 16/2/2 50/4/4
f 50/4/4 16/2/2 48/3/3
f 64/20/20 32/5/5 62/19/19
f 62/19/19 32/5/5 30/6/6
f 62/19/19 30/6/6 60/18/18
f 60/18/18 30/6/6 28/7/7
f 60/18/18 28/7/7 58/17/17
f 58/17/17 28/7/7 26/8/8
f 58/17/17 26/8/8 56/16/16
f 56/16/16 26/8/8 24/9/9
f 56/16/16 24/9/9 54/15/15
f 54/15/15 24/9/9 22/10/10
f 54/15/15 22/10/10 52/14/14
f 52/14/14 22/10/10 20/11/11
f 52/14/14 20/11/11 50/13/13
f 50/13/13 20/11/11 18/12/12
f 31/21/21 32/22/22 63/24/24
f 63/24/24 32/22/22 64/23/23
f 49/40/40 17/25/25 51/39/39
f 51/39/39 17/25/25 19/26/26
f 51/39/39 19/26/26 53/38/38
f 53/38/38 19/26/26 21/27/27
f 53/38/38 21/27/27 55/37/37
f 55/37/37 21/27/27 23/28/28
f 55/37/37 23/28/28 57/36/36
f 57/36/36 23/28/28 25/29/29
f 57/36/36 25/29/29 59/35/35
f 59/35/35 25/29/29 27/30/30
f 59/35/35 27/30/30 61/34/34
f 61/34/34 27/30/30 29/31/31
f 61/34/34 29/31/31 63/33/33
f 63/33/33 29/31/31 31/32/32
f 15/41/41 17/42/42 47/44/44
f 47/44/44 17/42/42 49/43/43
f 33/60/60 1/45/45 35/59/59
f 35/59/59 1/45/45 3/46/46
f 35/59/59 3/46/46 37/58/58
f 37/58/58 3/46/46 5/47/47
f 37/58/58 5/47/47 39/57/57
f 39/57/57 5/47/47 7/48/48
f 39/57/57 7/48/48 41/56/56
f 41/56/56 7/48/48 9/49/49
f 41/56/56 9/49/49 43/55/55
f 43/55/55 9/49/49 11/50/50
f 43/55/55 11/50/50 45/54/54
f 45/54/54 11/50/50 13/51/51
f 45/54/54 13/51/51 47/53/53
f 47/53/53 13/51/51 15/52/52
f 2/61/61 1/62/62 34/64/64
f 34/64/64 1/62/62 33/63/63
f 48/80/80 16/65/65 46/79/79
f 46/79/79 16/65/65 14/66/66
f 46/79/79 14/66/66 44/78/78
f 44/78/78 14/66/66 12/67/67
f 44/78/78 12/67/67 42/77/77
f 42/77/77 12/67/67 10/68/68
f 42/77/77 10/68/68 40/76/76
f 40/76/76 10/68/68 8/69/69
f 40/76/76 8/69/69 38/75/75
f 38/75/75 8/69/69 6/70/70
f 38/75/75 6/70/70 36/74/74
f 36/74/74 6/70/70 4/71/71
f 36/74/74 4/71/71 34/73/73
f 34/73/73 4/71/71 2/72/72
f 46/82/82 44/83/83 48/81/81
f 48/81/81 44/83/83 42/84/84
f 48/81/81 42/84/84 40/85/85
f 40/85/85 38/86/86 48/81/81
f 48/81/81 38/86/86 36/87/87
f 48/81/81 36/87/87 34/88/88
f 34/88/88 33/89/89 48/81/81
f 48/81/81 33/89/89 47/96/96
f 48/81/81 47/96/96 50/112/112
f 50/112/112 47/96/96 49/97/97
f 50/112/112 49/97/97 64/105/105
f 64/105/105 49/97/97 63/104/104
f 63/104/104 49/97/97 61/103/103
f 61/103/103 49/97/97 59/102/102
f 59/102/102 49/97/97 57/101/101
f 57/101/101 49/97/97 55/100/100
f 55/100/100 49/97/97 53/99/99
f 53/99/99 49/97/97 51/98/98
f 33/89/89 35/90/90 47/96/96
f 47/96/96 35/90/90 37/91/91
f 47/96/96 37/91/91 39/92/92
f 39/92/92 41/93/93 47/96/96
f 47/96/96 41/93/93 43/94/94
f 47/96/96 43/94/94 45/95/95
f 64/105/105 62/106/106 50/112/112
f 50/112/112 62/106/106 60/107/107
f 50/112/112 60/107/107 58/108/108
f 58/108/108 56/109/109 50/112/112
f 50/112/112 56/109/109 54/110/110
f 50/112/112 54/110/110 52/111/111
f 4/114/114 16/120/120 2/113/113
f 2/113/113 16/120/120 15/137/137
f 2/113/113 15/137/137 1/144/144
f 1/144/144 15/137/137 3/143/143
f 3/143/143 15/137/137 5/142/142
f 5/142/142 15/137/137 7/141/141
f 7/141/141 15/137/137 9/140/140
f 9/140/140 15/137/137 11/139/139
f 11/139/139 15/137/137 13/138/138
f 4/114/114 6/115/115 16/120/120
f 16/120/120 6/115/115 8/116/116
f 16/120/120 8/116/116 10/117/117
f 10/117/117 12/118/118 16/120/120
f 16/120/120 12/118/118 14/119/119
f 15/137/137 16/120/120 17/136/136
f 17/136/136 16/120/120 18/121/121
f 17/136/136 18/121/121 31/129/129
f 31/129/129 18/121/121 32/128/128
f 32/128/128 18/121/121 30/127/127
f 30/127/127 18/121/121 28/126/126
f 28/126/126 18/121/121 26/125/125
f 26/125/125 18/121/121 24/124/124
f 24/124/124 18/121/121 22/123/123
f 22/123/123 18/121/121 20/122/122
f 31/129/129 29/130/130 17/136/136
f 17/136/136 29/130/130 27/131/131
f 17/136/136 27/131/131 25/132/132
f 25/132/132 23/133/133 17/136/136
f 17/136/136 23/133/133 21/134/134
f 17/136/136 21/134/134 19/135/135

# 64 vertices
# 144 texture params
# 144 normals
# 124 facets

# 1 groups
